<?xml version="1.0" encoding="utf-8"?>
<!-- Generator: Adobe Illustrator 17.0.0, SVG Export Plug-In . SVG Version: 6.00 Build 0)  -->
<!DOCTYPE svg PUBLIC "-//W3C//DTD SVG 1.1//EN" "http://www.w3.org/Graphics/SVG/1.1/DTD/svg11.dtd">
<svg version="1.1" id="Layer_1" xmlns="http://www.w3.org/2000/svg" xmlns:xlink="http://www.w3.org/1999/xlink" x="0px" y="0px"
	 width="250px" height="250px" viewBox="0 0 250 250" style="enable-background:new 0 0 250 250;" xml:space="preserve">
<style type="text/css">
	.st0{fill:#FFFFFF;stroke:#000000;stroke-miterlimit:10;}
	.st1{fill:#5C4F4E;}
	.st2{font-family:'Georgia';}
	.st3{font-size:26;}
	.st4{font-family:'Corbel';}
	.st5{font-size:20;}
	.st6{fill:url(#SVGID_1_);}
	.st7{fill:url(#SVGID_2_);}
	.st8{fill:url(#SVGID_3_);}
	.st9{fill:url(#SVGID_4_);}
	.st10{fill:url(#SVGID_5_);}
	.st11{fill:url(#SVGID_6_);}
</style>
<rect x="-0.5" y="0.5" class="st0" width="250" height="250"/>
<text transform="matrix(1 0 0 1 38.3672 63.3667)" class="st1 st2 st3">LEARN MORE</text>
<text transform="matrix(1 0 0 1 41.3232 201.5527)"><tspan x="0" y="0" class="st1 st4 st5">Platform for Growth</tspan><tspan x="8.9" y="24" class="st1 st4 st5">in K12 Classrooms</tspan></text>
<g>
	<g>
		<g>
			<g>
				<path class="st1" d="M164.4,176.8h-15.9c-3.7-4.2-7.1-8.5-10.3-12.9c-3.2-4.4-6-9.1-8.4-14c-0.6,0-1.3-0.1-2.3-0.2
					c-0.9-0.1-1.9-0.3-2.8-0.4c-1-0.2-1.9-0.3-2.8-0.5c-0.9-0.2-1.7-0.4-2.3-0.6v14.3c0,2.6,0.1,4.7,0.2,6.4c0.1,1.7,0.5,3,1.1,4.1
					c0.6,1,1.5,1.8,2.8,2.3c1.2,0.5,2.9,0.8,5.1,1v1.1c-2.2-0.1-4.5-0.2-6.7-0.3c-2.2-0.1-4.5-0.1-6.7-0.1c-2.2,0-4.3,0-6.5,0.1
					c-2.1,0.1-4.2,0.2-6.4,0.3v-1.1c2.1-0.2,3.8-0.5,5-1c1.2-0.5,2.1-1.2,2.7-2.3c0.6-1,1-2.4,1.2-4.1s0.2-3.8,0.2-6.4v-30.6
					c0-2.6-0.1-4.7-0.2-6.4c-0.1-1.7-0.5-3-1.2-4.1c-0.6-1-1.5-1.8-2.7-2.3s-2.8-0.8-5-1V117c1.9,0.1,3.8,0.2,5.7,0.3
					c1.9,0.1,3.8,0.1,5.7,0.1c0.8,0,1.9,0,3.1-0.1c1.2-0.1,2.5-0.2,3.9-0.3c1.4-0.1,2.8-0.2,4.2-0.3c1.4-0.1,2.7-0.1,3.8-0.1
					c2.5,0,5.1,0.3,7.8,1c2.7,0.7,5,1.7,7.2,3.2c2.1,1.5,3.9,3.3,5.2,5.6c1.4,2.3,2,4.9,2,8c0,2.1-0.4,4-1.1,5.7
					c-0.7,1.6-1.7,3.1-3,4.3c-1.2,1.2-2.7,2.2-4.4,3c-1.7,0.8-3.4,1.4-5.3,1.7c0.8,1.5,1.8,3.1,2.9,4.9c1.1,1.8,2.4,3.7,3.8,5.6
					c1.4,1.9,2.9,3.8,4.4,5.6c1.6,1.9,3.2,3.5,4.9,5c1.7,1.5,3.5,2.7,5.3,3.8c1.8,1,3.7,1.6,5.6,1.8V176.8L164.4,176.8z M119.6,145
					c2.6,1,5.4,1.6,8.2,1.6c4.6,0,8.2-1.1,10.7-3.3c2.5-2.2,3.8-5.8,3.8-10.7c0-2-0.4-3.8-1.1-5.4c-0.7-1.6-1.8-3-3.1-4.2
					c-1.3-1.2-2.8-2.1-4.5-2.7c-1.7-0.6-3.4-1-5.3-1c-1.5,0-2.9,0.1-4.3,0.2c-1.4,0.1-2.8,0.4-4.2,0.8c-0.1,2.9-0.2,5.9-0.3,8.9
					c-0.1,3-0.1,6.2-0.1,9.7L119.6,145L119.6,145z"/>
			</g>
		</g>
	</g>
	<g>
		
			<linearGradient id="SVGID_1_" gradientUnits="userSpaceOnUse" x1="228.8701" y1="1013.6982" x2="251.6676" y2="1062.9299" gradientTransform="matrix(2.700000e-03 1 -1 2.700000e-03 1187.2753 -146.6007)">
			<stop  offset="0" style="stop-color:#FFFFFF"/>
			<stop  offset="0.2441" style="stop-color:#E7D4C4"/>
			<stop  offset="0.6121" style="stop-color:#C59871"/>
			<stop  offset="0.8729" style="stop-color:#AF733D"/>
			<stop  offset="1" style="stop-color:#A76429"/>
		</linearGradient>
		<path class="st6" d="M117.3,91.1c2.5-0.5,5.1-0.7,7.7-0.7c16.6,0,30.9,10,37,24.3l0-0.1c-0.7-1.9-1.2-3.9-1.2-6.1
			c0-9.2,7.4-16.6,16.6-16.7c0,0,0,0,0.1,0l0,0c-7.4-8.6-18.3-14-30.6-13.9C135.2,77.9,124.6,83,117.3,91.1L117.3,91.1z"/>
	</g>
	<g>
		
			<linearGradient id="SVGID_2_" gradientUnits="userSpaceOnUse" x1="-1126.939" y1="3275.8887" x2="-1104.1395" y2="3325.1243" gradientTransform="matrix(9.803370e-04 -1 1 9.803370e-04 -3199.0239 -1027.7235)">
			<stop  offset="0" style="stop-color:#FFFFFF"/>
			<stop  offset="0.2819" style="stop-color:#B7D2D3"/>
			<stop  offset="0.6314" style="stop-color:#649FA0"/>
			<stop  offset="0.8793" style="stop-color:#307F80"/>
			<stop  offset="1" style="stop-color:#1C7274"/>
		</linearGradient>
		<path class="st7" d="M132.7,96.6c-2.5,0.5-5.1,0.7-7.7,0.7c-16.6,0-30.8-10.1-37-24.4l0,0.1c0.7,1.9,1.1,3.9,1.1,6.1
			c0,9.2-7.5,16.6-16.7,16.6c0,0,0,0-0.1,0l0,0c7.4,8.6,18.3,14,30.5,14.1C114.8,109.6,125.4,104.6,132.7,96.6L132.7,96.6z"/>
	</g>
</g>
</svg>
