<?xml version="1.0" encoding="utf-8"?>
<!-- Generator: Adobe Illustrator 17.0.0, SVG Export Plug-In . SVG Version: 6.00 Build 0)  -->
<!DOCTYPE svg PUBLIC "-//W3C//DTD SVG 1.1//EN" "http://www.w3.org/Graphics/SVG/1.1/DTD/svg11.dtd">
<svg version="1.1" id="Layer_1" xmlns="http://www.w3.org/2000/svg" xmlns:xlink="http://www.w3.org/1999/xlink" x="0px" y="0px"
	 width="189.614px" height="108.696px" viewBox="0 0 189.614 108.696" enable-background="new 0 0 189.614 108.696"
	 xml:space="preserve">
<line fill="none" stroke="#822F26" stroke-width="3" stroke-miterlimit="10" x1="23.106" y1="93.72" x2="173.773" y2="93.72"/>
<g>
	<g>
		<g>
			<path fill="#5C4F4E" d="M42.416,69.764h-7.92c-1.848-2.024-3.557-4.099-5.126-6.226c-1.569-2.127-2.97-4.378-4.202-6.755
				c-0.293,0-0.667-0.028-1.122-0.088c-0.455-0.058-0.924-0.124-1.408-0.197c-0.483-0.073-0.953-0.161-1.407-0.265
				c-0.455-0.103-0.829-0.197-1.122-0.286v6.864c0,1.232,0.036,2.252,0.109,3.059s0.265,1.459,0.572,1.958s0.771,0.865,1.386,1.1
				c0.616,0.235,1.467,0.396,2.553,0.484v0.527c-1.115-0.059-2.23-0.103-3.345-0.132c-1.115-0.029-2.229-0.044-3.344-0.044
				c-1.086,0-2.156,0.015-3.212,0.044s-2.112,0.073-3.168,0.132v-0.527c1.056-0.089,1.877-0.249,2.464-0.484
				c0.587-0.234,1.034-0.601,1.342-1.1c0.309-0.499,0.499-1.151,0.572-1.958s0.11-1.826,0.11-3.059V48.116
				c0-1.231-0.037-2.25-0.11-3.058c-0.073-0.807-0.264-1.459-0.572-1.958c-0.308-0.498-0.755-0.865-1.342-1.1
				s-1.408-0.396-2.464-0.484v-0.528c0.938,0.06,1.877,0.104,2.816,0.133c0.938,0.029,1.876,0.044,2.815,0.044
				c0.41,0,0.924-0.022,1.54-0.066s1.269-0.095,1.958-0.154c0.688-0.059,1.386-0.109,2.09-0.153s1.335-0.066,1.893-0.066
				c1.261,0,2.552,0.161,3.872,0.484c1.319,0.323,2.508,0.836,3.563,1.54c1.056,0.704,1.921,1.599,2.596,2.684
				c0.675,1.086,1.013,2.376,1.013,3.872c0,1.027-0.184,1.936-0.551,2.728c-0.366,0.792-0.857,1.482-1.474,2.068
				c-0.616,0.587-1.342,1.071-2.178,1.452c-0.836,0.382-1.709,0.66-2.618,0.836c0.41,0.704,0.895,1.496,1.452,2.376
				c0.557,0.88,1.181,1.775,1.87,2.684c0.688,0.91,1.422,1.812,2.2,2.706c0.776,0.896,1.598,1.702,2.464,2.42
				c0.864,0.72,1.752,1.32,2.662,1.805c0.908,0.483,1.832,0.77,2.771,0.857V69.764z M20.108,54.452
				c1.319,0.499,2.684,0.747,4.092,0.747c2.288,0,4.062-0.527,5.324-1.584c1.261-1.056,1.892-2.771,1.892-5.147
				c0-0.968-0.184-1.841-0.55-2.618c-0.367-0.776-0.873-1.452-1.519-2.024c-0.646-0.571-1.386-1.012-2.222-1.319
				c-0.836-0.309-1.709-0.462-2.618-0.462c-0.733,0-1.452,0.029-2.155,0.088c-0.704,0.059-1.394,0.191-2.068,0.396
				c-0.06,1.408-0.104,2.831-0.132,4.269c-0.03,1.438-0.044,2.992-0.044,4.664V54.452z"/>
			<path fill="#5C4F4E" d="M46.116,60.524c0,1.525,0.197,2.787,0.594,3.784c0.396,0.998,0.895,1.79,1.496,2.376
				c0.601,0.587,1.246,0.998,1.936,1.232s1.327,0.352,1.914,0.352c1.232,0,2.347-0.198,3.344-0.594
				c0.997-0.396,1.921-1.019,2.772-1.87l0.748,0.704c-1.203,1.291-2.436,2.273-3.696,2.948c-1.262,0.674-2.771,1.012-4.532,1.012
				c-1.261,0-2.391-0.25-3.388-0.748s-1.848-1.158-2.552-1.98c-0.704-0.82-1.239-1.76-1.606-2.815
				c-0.367-1.057-0.55-2.141-0.55-3.256c0-1.114,0.183-2.2,0.55-3.256c0.367-1.057,0.902-1.995,1.606-2.816s1.555-1.48,2.552-1.98
				c0.997-0.498,2.127-0.748,3.388-0.748c2.317,0,4.181,0.632,5.589,1.893c1.407,1.262,2.272,3.183,2.596,5.764H46.116z
				 M54.695,59.204c-0.088-0.792-0.205-1.503-0.352-2.135c-0.147-0.63-0.382-1.158-0.704-1.584
				c-0.323-0.425-0.748-0.748-1.275-0.968c-0.528-0.22-1.203-0.33-2.024-0.33c-0.616,0-1.182,0.154-1.694,0.462
				c-0.514,0.309-0.953,0.704-1.319,1.188c-0.367,0.483-0.646,1.027-0.836,1.628c-0.191,0.602-0.286,1.181-0.286,1.738H54.695z"/>
			<path fill="#5C4F4E" d="M58.743,40.988c1.026,0.06,2.038,0.104,3.035,0.133s2.009,0.044,3.036,0.044
				c1.232,0,2.435-0.015,3.608-0.044c1.173-0.029,2.347-0.073,3.52-0.133v0.528c-0.411,0.06-0.851,0.132-1.319,0.22
				c-0.47,0.088-0.91,0.228-1.32,0.418c-0.411,0.191-0.748,0.448-1.012,0.771c-0.265,0.323-0.396,0.763-0.396,1.32
				c0,0.527,0.425,1.848,1.276,3.96l6.908,16.72l5.72-13.508c1.466-3.549,2.2-5.969,2.2-7.261c0-0.469-0.104-0.864-0.309-1.188
				c-0.205-0.322-0.483-0.579-0.836-0.771c-0.352-0.19-0.741-0.337-1.166-0.439c-0.426-0.103-0.857-0.183-1.298-0.242v-0.528
				c0.997,0.06,1.987,0.104,2.97,0.133s1.958,0.044,2.927,0.044c0.82,0,1.628-0.015,2.42-0.044s1.584-0.073,2.376-0.133v0.528
				c-1.027,0.117-1.893,0.455-2.597,1.012c-0.704,0.558-1.306,1.232-1.804,2.024c-0.499,0.792-0.932,1.643-1.298,2.552
				c-0.367,0.91-0.726,1.76-1.078,2.552l-9.152,20.549h-0.968L63.934,46.092c-0.528-1.261-1.181-2.311-1.958-3.146
				s-1.855-1.312-3.233-1.43V40.988z"/>
			<path fill="#5C4F4E" d="M94.074,69.412c1.056-0.089,1.877-0.249,2.464-0.484c0.587-0.234,1.034-0.601,1.342-1.1
				c0.309-0.499,0.499-1.151,0.572-1.958s0.11-1.826,0.11-3.059V48.116c0-1.231-0.037-2.25-0.11-3.058
				c-0.073-0.807-0.264-1.459-0.572-1.958c-0.308-0.498-0.77-0.865-1.386-1.1s-1.452-0.396-2.508-0.484v-0.528
				c1.231,0.06,2.427,0.104,3.586,0.133c1.158,0.029,2.354,0.044,3.586,0.044c0.968,0,1.936-0.015,2.904-0.044
				c0.968-0.029,1.921-0.073,2.859-0.133v0.528c-1.027,0.088-1.833,0.25-2.42,0.484s-1.027,0.602-1.32,1.1
				c-0.293,0.499-0.477,1.151-0.55,1.958c-0.073,0.808-0.109,1.826-0.109,3.058v14.696c0,1.232,0.036,2.252,0.109,3.059
				s0.265,1.459,0.572,1.958s0.77,0.865,1.386,1.1c0.616,0.235,1.467,0.396,2.553,0.484v0.527c-1.115-0.059-2.23-0.103-3.345-0.132
				c-1.115-0.029-2.229-0.044-3.344-0.044c-1.086,0-2.156,0.015-3.212,0.044s-2.112,0.073-3.168,0.132V69.412z"/>
			<path fill="#5C4F4E" d="M119.99,68.048c0.264,0.059,0.586,0.117,0.968,0.176c0.381,0.06,0.792,0.117,1.231,0.176
				c0.44,0.06,0.895,0.11,1.364,0.154c0.469,0.044,0.909,0.066,1.32,0.066c1.76,0,3.336-0.146,4.729-0.44
				c1.394-0.293,2.669-0.763,3.828-1.408c1.158-0.645,2.251-1.466,3.278-2.464c1.026-0.997,2.068-2.2,3.124-3.608l0.484,0.396
				l-4.005,8.844c-0.499-0.059-1.012-0.103-1.54-0.132c-0.527-0.029-1.041-0.044-1.54-0.044h-16.544
				c-0.851,0-1.701,0.015-2.552,0.044s-1.701,0.073-2.552,0.132v-0.527c1.056-0.089,1.877-0.249,2.464-0.484
				c0.587-0.234,1.026-0.601,1.32-1.1c0.293-0.499,0.477-1.151,0.55-1.958s0.11-1.826,0.11-3.059V48.116
				c0-1.231-0.037-2.25-0.11-3.058c-0.073-0.807-0.257-1.459-0.55-1.958c-0.294-0.498-0.748-0.865-1.364-1.1
				s-1.452-0.396-2.508-0.484v-0.528c0.997,0.03,1.942,0.06,2.838,0.088c0.895,0.03,1.818,0.052,2.771,0.066
				c0.953,0.016,1.965,0.022,3.036,0.022c1.07,0,2.28,0,3.63,0c2.054,0,4.106-0.015,6.16-0.044c2.053-0.029,4.137-0.073,6.248-0.133
				c-0.029,0.323-0.052,0.646-0.065,0.969c-0.016,0.322-0.022,0.631-0.022,0.924v1.76c0,0.646,0.029,1.298,0.088,1.958
				s0.117,1.386,0.176,2.178l-0.571,0.177c-0.382-1.408-0.888-2.56-1.519-3.454s-1.363-1.591-2.199-2.091
				c-0.837-0.498-1.754-0.836-2.75-1.012c-0.998-0.176-2.054-0.264-3.169-0.264c-2.053,0-4.106,0.088-6.159,0.264v11
				c0.586,0,1.15-0.015,1.693-0.044c0.543-0.028,1.107-0.044,1.694-0.044c2.024,0,3.63-0.402,4.818-1.21
				c1.188-0.807,1.914-2.28,2.178-4.422h0.528c0,1.056-0.016,2.112-0.045,3.168s-0.044,2.098-0.044,3.124
				c0,1.056,0.015,2.112,0.044,3.168s0.045,2.112,0.045,3.168h-0.528c-0.264-1.232-0.587-2.236-0.968-3.014
				c-0.382-0.777-0.858-1.371-1.431-1.782c-0.571-0.41-1.283-0.689-2.134-0.836s-1.863-0.22-3.036-0.22h-2.815V68.048z"/>
			<path fill="#5C4F4E" d="M141.061,40.988c1.056,0.06,2.112,0.104,3.168,0.133c1.057,0.029,2.097,0.044,3.124,0.044
				c1.173,0,2.332-0.015,3.476-0.044c1.145-0.029,2.289-0.073,3.432-0.133v0.528c-0.498,0.06-0.996,0.132-1.496,0.22
				c-0.498,0.088-0.945,0.242-1.342,0.462c-0.395,0.221-0.719,0.521-0.967,0.902c-0.25,0.382-0.374,0.88-0.374,1.496
				c0,0.411,0.116,0.917,0.352,1.518c0.233,0.602,0.513,1.313,0.835,2.135l6.117,16.147l5.455-13.508l-2.287-5.72
				c-0.939-2.317-2.596-3.535-4.973-3.652v-0.528c0.969,0.06,1.936,0.104,2.904,0.133s1.936,0.044,2.904,0.044
				c1.232,0,2.457-0.015,3.674-0.044s2.441-0.073,3.674-0.133v0.528c-0.381,0.029-0.814,0.096-1.299,0.198
				c-0.482,0.103-0.938,0.249-1.363,0.439c-0.426,0.191-0.785,0.448-1.078,0.771c-0.293,0.323-0.439,0.733-0.439,1.231
				c0,0.265,0.066,0.616,0.197,1.057c0.133,0.439,0.346,1.041,0.639,1.804l6.557,17.38l6.688-16.852
				c0.234-0.587,0.439-1.232,0.615-1.937s0.264-1.231,0.264-1.584c0-0.439-0.139-0.813-0.418-1.122
				c-0.279-0.308-0.623-0.557-1.033-0.748c-0.412-0.19-0.844-0.337-1.299-0.439s-0.857-0.169-1.209-0.198v-0.528
				c0.969,0.06,1.928,0.104,2.881,0.133s1.9,0.044,2.84,0.044c0.85,0,1.699-0.015,2.551-0.044s1.701-0.073,2.553-0.133v0.528
				c-0.881,0.088-1.621,0.308-2.223,0.66c-0.602,0.352-1.115,0.785-1.539,1.298c-0.426,0.514-0.777,1.063-1.057,1.65
				s-0.535,1.144-0.77,1.672L170.76,70.204h-0.748l-6.424-17.469l-7.348,17.469h-0.791l-8.933-23.717
				c-0.439-1.144-0.88-2.03-1.32-2.662c-0.439-0.63-0.88-1.1-1.319-1.407c-0.44-0.309-0.896-0.513-1.364-0.616
				c-0.47-0.103-0.953-0.198-1.452-0.286V40.988z"/>
		</g>
	</g>
</g>
<g>
	
		<linearGradient id="SVGID_1_" gradientUnits="userSpaceOnUse" x1="235.6459" y1="1394.7816" x2="248.9859" y2="1423.5895" gradientTransform="matrix(0.0027 1 -1 0.0027 1462.5323 -225.3355)">
		<stop  offset="0" style="stop-color:#FFFFFF"/>
		<stop  offset="0.2441" style="stop-color:#E7D4C4"/>
		<stop  offset="0.6121" style="stop-color:#C59871"/>
		<stop  offset="0.8729" style="stop-color:#AF733D"/>
		<stop  offset="1" style="stop-color:#A76429"/>
	</linearGradient>
	<path fill="url(#SVGID_1_)" d="M34.973,17.435c1.455-0.298,2.957-0.455,4.495-0.458c9.718-0.029,18.077,6.11,21.684,14.887
		l-0.002-0.035c-0.435-1.152-0.677-2.404-0.679-3.714c-0.015-5.622,4.336-10.192,9.716-10.208c0.013-0.001,0.022,0,0.034-0.001l0,0
		c-4.327-5.243-10.737-8.558-17.884-8.538c-6.886,0.021-13.073,3.131-17.362,8.07L34.973,17.435z"/>
</g>
<g>
	
		<linearGradient id="SVGID_2_" gradientUnits="userSpaceOnUse" x1="-117.6728" y1="1935.0364" x2="-104.3328" y2="1963.8442" gradientTransform="matrix(9.803370e-04 -1 1 9.803370e-04 -1924.7118 -97.892)">
		<stop  offset="0" style="stop-color:#FFFFFF"/>
		<stop  offset="0.2819" style="stop-color:#B7D2D3"/>
		<stop  offset="0.6314" style="stop-color:#649FA0"/>
		<stop  offset="0.8793" style="stop-color:#307F80"/>
		<stop  offset="1" style="stop-color:#1C7274"/>
	</linearGradient>
	<path fill="url(#SVGID_2_)" d="M43.621,18.383c-1.456,0.293-2.959,0.445-4.496,0.442c-9.718-0.007-18.055-6.176-21.63-14.966
		l0.002,0.035c0.431,1.154,0.668,2.406,0.666,3.717c-0.006,5.622-4.373,10.176-9.754,10.172c-0.013,0.001-0.022,0-0.034,0l0,0
		c4.308,5.259,10.706,8.597,17.853,8.603c6.886,0.004,13.085-3.084,17.391-8.007L43.621,18.383z"/>
</g>
<text transform="matrix(1.0103 0 0 1 14.2343 88.1615)" fill="#5C4F4E" font-family="'Corbel'" font-size="16.3833">Talent Feedback System</text>
<text transform="matrix(1 0 0 1 21.8915 103.9198)" fill="#5C4F4E" font-family="'Corbel'" font-size="8.5">Coaching for Growth in Teacher Preparation</text>
</svg>
