<?xml version="1.0" encoding="utf-8"?>
<!-- Generator: Adobe Illustrator 17.0.0, SVG Export Plug-In . SVG Version: 6.00 Build 0)  -->
<!DOCTYPE svg PUBLIC "-//W3C//DTD SVG 1.1//EN" "http://www.w3.org/Graphics/SVG/1.1/DTD/svg11.dtd">
<svg version="1.1" id="Layer_1" xmlns="http://www.w3.org/2000/svg" xmlns:xlink="http://www.w3.org/1999/xlink" x="0px" y="0px"
	 width="250px" height="250px" viewBox="-134.033 -103.861 250 250" enable-background="new -134.033 -103.861 250 250"
	 xml:space="preserve">
<path fill="none" stroke="#822F26" stroke-width="3" stroke-miterlimit="10" d="M-71.026,86.391"/>
<rect x="-134.033" y="-103.861" fill="#FFFFFF" width="250" height="250"/>
<text transform="matrix(1 0 0 1 -76.1128 88.2777)" enable-background="new    "><tspan x="0" y="0" fill="#5C4F4E" font-family="'Corbel'" font-size="20">ReVIEW Talent</tspan><tspan x="-10.708" y="24" fill="#5C4F4E" font-family="'Corbel'" font-size="20">Feedback System</tspan></text>
<g>
	<g>
		<g>
			<path fill="#5C4F4E" d="M17.81,71.329H1.898C-1.814,67.121-5.248,62.807-8.4,58.385c-3.152-4.422-5.966-9.102-8.442-14.044
				c-0.588,0-1.34-0.058-2.254-0.182c-0.914-0.12-1.856-0.258-2.83-0.41c-0.972-0.152-1.914-0.336-2.828-0.55
				c-0.914-0.214-1.666-0.41-2.254-0.594v14.272c0,2.562,0.072,4.682,0.22,6.36s0.532,3.034,1.15,4.07
				c0.618,1.038,1.548,1.798,2.784,2.286c1.238,0.49,2.946,0.822,5.128,1.008v1.096c-2.24-0.122-4.482-0.214-6.72-0.274
				c-2.24-0.06-4.48-0.092-6.718-0.092c-2.182,0-4.332,0.03-6.454,0.092s-4.244,0.152-6.364,0.274v-1.096
				c2.12-0.184,3.772-0.518,4.95-1.008c1.18-0.488,2.078-1.248,2.696-2.286c0.62-1.038,1.002-2.394,1.15-4.07
				s0.222-3.796,0.222-6.36V26.321c0-2.56-0.074-4.678-0.222-6.358c-0.148-1.678-0.53-3.034-1.15-4.07
				c-0.618-1.036-1.516-1.798-2.696-2.286c-1.18-0.488-2.83-0.824-4.95-1.008v-1.098c1.886,0.124,3.772,0.216,5.658,0.276
				c1.884,0.06,3.77,0.092,5.656,0.092c0.824,0,1.856-0.046,3.094-0.138s2.548-0.196,3.934-0.32
				c1.384-0.122,2.784-0.228,4.198-0.318c1.414-0.092,2.682-0.138,3.802-0.138c2.532,0,5.126,0.336,7.78,1.008
				c2.65,0.672,5.038,1.738,7.16,3.202s3.86,3.324,5.216,5.58c1.356,2.258,2.034,4.94,2.034,8.05c0,2.136-0.368,4.024-1.106,5.67
				c-0.736,1.646-1.722,3.082-2.96,4.3c-1.238,1.22-2.696,2.228-4.376,3.02c-1.68,0.794-3.434,1.372-5.26,1.738
				c0.824,1.464,1.798,3.11,2.918,4.94c1.118,1.83,2.372,3.692,3.758,5.58c1.384,1.892,2.856,3.766,4.42,5.626
				c1.56,1.862,3.21,3.538,4.95,5.032c1.736,1.496,3.52,2.746,5.348,3.752c1.824,1.006,3.68,1.6,5.568,1.782L17.81,71.329
				L17.81,71.329z M-27.008,39.495c2.65,1.038,5.392,1.554,8.22,1.554c4.598,0,8.162-1.096,10.698-3.294
				c2.532-2.194,3.8-5.762,3.8-10.702c0-2.012-0.368-3.828-1.104-5.444c-0.738-1.614-1.754-3.02-3.05-4.208
				c-1.296-1.188-2.784-2.104-4.464-2.744c-1.68-0.642-3.434-0.96-5.26-0.96c-1.474,0-2.918,0.06-4.33,0.182
				c-1.414,0.122-2.8,0.398-4.156,0.822c-0.12,2.928-0.208,5.886-0.264,8.874c-0.06,2.988-0.088,6.222-0.088,9.698v6.222H-27.008z"
				/>
			<path fill="#5C4F4E" d="M141.45,28.349"/>
			<path fill="#5C4F4E" d="M166.144,29.823"/>
			<path fill="#5C4F4E" d="M230.906,35.897l-0.976,0.288 M196.176,34.819c0-2.012-0.064-3.676-0.188-4.994"/>
			<path fill="#5C4F4E" d="M316.374,24.037c-1.504,0.144-2.77,0.502-3.798,1.078"/>
		</g>
	</g>
</g>
<g>
	
		<linearGradient id="SVGID_1_" gradientUnits="userSpaceOnUse" x1="420.8585" y1="-936.6922" x2="443.656" y2="-985.924" gradientTransform="matrix(0.0027 1 1 -0.0027 963.1359 -443.8592)">
		<stop  offset="0" style="stop-color:#FFFFFF"/>
		<stop  offset="0.2441" style="stop-color:#E7D4C4"/>
		<stop  offset="0.6121" style="stop-color:#C59871"/>
		<stop  offset="0.8729" style="stop-color:#AF733D"/>
		<stop  offset="1" style="stop-color:#A76429"/>
	</linearGradient>
	<path fill="url(#SVGID_1_)" d="M-29.364-14.403c2.486-0.488,5.052-0.744,7.68-0.748C-5.08-15.197,9.202-5.169,15.364,9.169
		L15.36,9.113c-0.744-1.882-1.156-3.926-1.16-6.068c-0.026-9.184,7.408-16.65,16.6-16.676c0.022-0.002,0.038,0,0.058,0l0,0
		c-7.392-8.566-18.344-13.98-30.556-13.948c-11.766,0.036-22.336,5.116-29.664,13.184L-29.364-14.403z"/>
</g>
<g>
	
		<linearGradient id="SVGID_2_" gradientUnits="userSpaceOnUse" x1="-477.0186" y1="-2062.0503" x2="-454.2191" y2="-2111.2859" gradientTransform="matrix(9.803370e-04 -1 -1 -9.803370e-04 -2132.4377 -482.0912)">
		<stop  offset="0" style="stop-color:#FFFFFF"/>
		<stop  offset="0.2819" style="stop-color:#B7D2D3"/>
		<stop  offset="0.6314" style="stop-color:#649FA0"/>
		<stop  offset="0.8793" style="stop-color:#307F80"/>
		<stop  offset="1" style="stop-color:#1C7274"/>
	</linearGradient>
	<path fill="url(#SVGID_2_)" d="M-13.872-8.927c-2.488,0.478-5.054,0.726-7.682,0.722c-16.604-0.012-30.848-10.09-36.954-24.448
		l0.004,0.056c0.736,1.884,1.142,3.93,1.138,6.072c-0.01,9.184-7.472,16.624-16.664,16.618c-0.022,0.002-0.038,0-0.058,0l0,0
		c7.36,8.592,18.292,14.044,30.502,14.054C-31.82,4.153-21.23-0.891-13.872-8.933L-13.872-8.927z"/>
</g>
<text transform="matrix(1 0 0 1 -64.9908 -32.6532)" fill="#5C4F4E" font-family="'Georgia'" font-size="26">LOG IN</text>
</svg>
