<?xml version="1.0" encoding="utf-8"?>
<!-- Generator: Adobe Illustrator 17.0.0, SVG Export Plug-In . SVG Version: 6.00 Build 0)  -->
<!DOCTYPE svg PUBLIC "-//W3C//DTD SVG 1.1//EN" "http://www.w3.org/Graphics/SVG/1.1/DTD/svg11.dtd">
<svg version="1.1" id="Layer_1" xmlns="http://www.w3.org/2000/svg" xmlns:xlink="http://www.w3.org/1999/xlink" x="0px" y="0px"
	 width="250px" height="100px" viewBox="0 0 250 100" enable-background="new 0 0 250 100" xml:space="preserve">
<line fill="none" stroke="#822F26" stroke-width="3" stroke-miterlimit="10" x1="61.553" y1="75.384" x2="190.261" y2="75.384"/>
<g>
	<g>
		<g>
			<path fill="#5C4F4E" d="M78.048,55.816h-6.766c-1.578-1.654-3.038-3.348-4.379-5.085s-2.537-3.576-3.59-5.517
				c-0.25,0-0.57-0.023-0.959-0.072c-0.389-0.047-0.789-0.101-1.203-0.161c-0.413-0.06-0.814-0.132-1.202-0.216
				c-0.389-0.084-0.708-0.161-0.959-0.234v5.607c0,1.007,0.031,1.839,0.093,2.498s0.226,1.192,0.489,1.599
				c0.263,0.408,0.658,0.707,1.184,0.898c0.526,0.192,1.253,0.323,2.181,0.396v0.431c-0.953-0.048-1.905-0.084-2.857-0.108
				c-0.953-0.024-1.905-0.036-2.856-0.036c-0.928,0-1.842,0.012-2.744,0.036c-0.902,0.024-1.804,0.06-2.706,0.108v-0.431
				c0.902-0.073,1.603-0.203,2.105-0.396c0.501-0.191,0.883-0.491,1.146-0.898c0.264-0.408,0.426-0.94,0.489-1.599
				s0.094-1.492,0.094-2.498V38.134c0-1.006-0.032-1.838-0.094-2.497c-0.063-0.659-0.225-1.192-0.489-1.599
				c-0.263-0.407-0.645-0.707-1.146-0.898s-1.203-0.324-2.105-0.396v-0.432c0.802,0.049,1.603,0.085,2.406,0.108
				c0.801,0.024,1.603,0.036,2.405,0.036c0.35,0,0.789-0.018,1.316-0.054c0.526-0.036,1.084-0.077,1.673-0.126
				c0.588-0.048,1.184-0.089,1.785-0.125c0.601-0.036,1.14-0.054,1.617-0.054c1.077,0,2.18,0.132,3.308,0.396
				c1.127,0.264,2.142,0.683,3.044,1.258s1.641,1.306,2.217,2.192c0.576,0.887,0.865,1.941,0.865,3.163
				c0,0.839-0.157,1.581-0.471,2.228c-0.313,0.647-0.732,1.211-1.259,1.689c-0.526,0.479-1.146,0.875-1.86,1.186
				c-0.714,0.312-1.46,0.539-2.237,0.683c0.35,0.575,0.764,1.222,1.241,1.941c0.476,0.719,1.009,1.45,1.598,2.192
				c0.588,0.743,1.215,1.48,1.88,2.21c0.663,0.731,1.365,1.39,2.105,1.977c0.738,0.588,1.497,1.078,2.274,1.474
				c0.776,0.395,1.565,0.629,2.368,0.7V55.816z M58.991,43.31c1.127,0.408,2.292,0.61,3.495,0.61c1.955,0,3.47-0.431,4.548-1.294
				c1.077-0.862,1.616-2.264,1.616-4.204c0-0.79-0.157-1.504-0.47-2.139c-0.314-0.634-0.746-1.186-1.297-1.654
				c-0.551-0.467-1.184-0.826-1.898-1.078c-0.714-0.252-1.46-0.377-2.237-0.377c-0.627,0-1.241,0.024-1.841,0.072
				c-0.601,0.048-1.19,0.156-1.767,0.323c-0.051,1.15-0.088,2.312-0.113,3.487c-0.026,1.174-0.038,2.444-0.038,3.81V43.31z"/>
			<path fill="#5C4F4E" d="M81.209,48.269c0,1.246,0.169,2.277,0.507,3.091c0.338,0.815,0.764,1.462,1.278,1.941
				c0.513,0.479,1.064,0.815,1.653,1.007c0.589,0.191,1.134,0.287,1.635,0.287c1.053,0,2.005-0.162,2.856-0.485
				c0.852-0.324,1.641-0.832,2.368-1.528l0.639,0.575c-1.028,1.055-2.081,1.857-3.158,2.408c-1.078,0.55-2.368,0.826-3.872,0.826
				c-1.077,0-2.042-0.204-2.894-0.611c-0.852-0.407-1.578-0.946-2.18-1.618c-0.601-0.67-1.059-1.437-1.372-2.3
				c-0.314-0.863-0.47-1.748-0.47-2.659c0-0.91,0.156-1.797,0.47-2.659c0.314-0.863,0.771-1.63,1.372-2.3
				c0.601-0.671,1.328-1.209,2.18-1.618c0.852-0.407,1.817-0.611,2.894-0.611c1.98,0,3.571,0.516,4.774,1.546
				c1.202,1.031,1.941,2.6,2.217,4.708H81.209z M88.537,47.191c-0.075-0.647-0.175-1.228-0.3-1.744
				c-0.126-0.514-0.326-0.946-0.601-1.294c-0.276-0.347-0.639-0.611-1.09-0.79c-0.451-0.179-1.028-0.27-1.729-0.27
				c-0.526,0-1.009,0.126-1.447,0.377c-0.439,0.252-0.814,0.575-1.127,0.971c-0.314,0.395-0.551,0.839-0.714,1.33
				c-0.164,0.491-0.244,0.964-0.244,1.42H88.537z"/>
			<path fill="#5C4F4E" d="M91.995,32.312c0.877,0.049,1.741,0.085,2.593,0.108c0.852,0.024,1.716,0.036,2.594,0.036
				c1.053,0,2.08-0.012,3.083-0.036c1.002-0.024,2.005-0.06,3.007-0.108v0.432c-0.351,0.049-0.727,0.108-1.127,0.179
				c-0.401,0.072-0.778,0.186-1.128,0.341c-0.351,0.156-0.639,0.366-0.864,0.629c-0.226,0.264-0.339,0.623-0.339,1.078
				c0,0.431,0.363,1.509,1.09,3.235l5.901,13.657l4.886-11.033c1.252-2.899,1.88-4.875,1.88-5.931c0-0.383-0.088-0.706-0.264-0.97
				c-0.175-0.263-0.413-0.473-0.714-0.629c-0.3-0.156-0.633-0.275-0.996-0.359c-0.364-0.084-0.732-0.149-1.109-0.198v-0.432
				c0.852,0.049,1.698,0.085,2.537,0.108c0.839,0.024,1.673,0.036,2.5,0.036c0.701,0,1.391-0.012,2.067-0.036s1.353-0.06,2.03-0.108
				v0.432c-0.878,0.096-1.617,0.372-2.218,0.826c-0.601,0.455-1.115,1.007-1.541,1.654c-0.426,0.647-0.796,1.342-1.109,2.084
				c-0.314,0.743-0.62,1.437-0.921,2.084l-7.818,16.784h-0.827L96.43,36.481c-0.451-1.03-1.009-1.887-1.673-2.57
				c-0.664-0.683-1.585-1.072-2.762-1.168V32.312z"/>
			<path fill="#5C4F4E" d="M122.177,55.529c0.902-0.073,1.603-0.203,2.105-0.396c0.501-0.191,0.883-0.491,1.146-0.898
				c0.264-0.408,0.426-0.94,0.489-1.599s0.094-1.492,0.094-2.498V38.134c0-1.006-0.032-1.838-0.094-2.497
				c-0.063-0.659-0.225-1.192-0.489-1.599c-0.263-0.407-0.657-0.707-1.184-0.898c-0.526-0.191-1.241-0.324-2.142-0.396v-0.432
				c1.052,0.049,2.073,0.085,3.063,0.108c0.989,0.024,2.011,0.036,3.063,0.036c0.827,0,1.653-0.012,2.481-0.036
				c0.827-0.024,1.641-0.06,2.443-0.108v0.432c-0.878,0.072-1.566,0.204-2.067,0.396s-0.878,0.491-1.128,0.898
				c-0.25,0.408-0.407,0.94-0.47,1.599c-0.063,0.66-0.093,1.492-0.093,2.497v12.004c0,1.007,0.031,1.839,0.093,2.498
				c0.063,0.659,0.226,1.192,0.489,1.599c0.263,0.408,0.657,0.707,1.184,0.898c0.526,0.192,1.253,0.323,2.181,0.396v0.431
				c-0.953-0.048-1.905-0.084-2.857-0.108c-0.953-0.024-1.905-0.036-2.856-0.036c-0.928,0-1.842,0.012-2.744,0.036
				s-1.804,0.06-2.706,0.108V55.529z"/>
			<path fill="#5C4F4E" d="M144.316,54.415c0.225,0.048,0.501,0.096,0.827,0.144c0.325,0.049,0.677,0.096,1.052,0.144
				c0.376,0.049,0.764,0.09,1.165,0.126c0.4,0.036,0.777,0.054,1.128,0.054c1.503,0,2.85-0.12,4.04-0.36
				c1.19-0.239,2.28-0.623,3.27-1.15c0.989-0.526,1.923-1.197,2.801-2.013c0.877-0.814,1.767-1.797,2.669-2.947l0.414,0.324
				l-3.421,7.224c-0.426-0.048-0.864-0.084-1.316-0.108c-0.45-0.024-0.889-0.036-1.316-0.036h-14.133
				c-0.727,0-1.453,0.012-2.18,0.036s-1.453,0.06-2.18,0.108v-0.431c0.902-0.073,1.603-0.203,2.105-0.396
				c0.501-0.191,0.877-0.491,1.128-0.898c0.25-0.408,0.407-0.94,0.47-1.599c0.063-0.659,0.094-1.492,0.094-2.498V38.134
				c0-1.006-0.032-1.838-0.094-2.497c-0.063-0.659-0.219-1.192-0.47-1.599c-0.251-0.407-0.639-0.707-1.165-0.898
				s-1.241-0.324-2.142-0.396v-0.432c0.852,0.025,1.659,0.049,2.424,0.072c0.764,0.025,1.553,0.042,2.368,0.054
				c0.814,0.013,1.678,0.018,2.594,0.018c0.914,0,1.948,0,3.101,0c1.754,0,3.508-0.012,5.262-0.036
				c1.754-0.024,3.534-0.06,5.337-0.108c-0.025,0.264-0.044,0.527-0.056,0.791c-0.013,0.263-0.019,0.515-0.019,0.755v1.437
				c0,0.527,0.025,1.06,0.075,1.599c0.05,0.539,0.1,1.132,0.15,1.779l-0.488,0.144c-0.326-1.15-0.758-2.091-1.297-2.821
				c-0.539-0.731-1.165-1.299-1.879-1.708c-0.715-0.407-1.498-0.683-2.349-0.826c-0.853-0.144-1.754-0.215-2.707-0.215
				c-1.754,0-3.508,0.072-5.262,0.215v8.985c0.501,0,0.983-0.012,1.447-0.036c0.464-0.023,0.946-0.036,1.447-0.036
				c1.729,0,3.101-0.329,4.116-0.988c1.014-0.659,1.635-1.863,1.86-3.612h0.451c0,0.862-0.013,1.725-0.038,2.588
				c-0.025,0.862-0.038,1.713-0.038,2.552c0,0.862,0.013,1.725,0.038,2.588s0.038,1.725,0.038,2.588h-0.451
				c-0.225-1.007-0.501-1.827-0.827-2.462c-0.326-0.635-0.733-1.12-1.222-1.456c-0.488-0.335-1.096-0.563-1.823-0.683
				c-0.727-0.12-1.592-0.179-2.594-0.179h-2.405V54.415z"/>
			<path fill="#5C4F4E" d="M162.317,32.312c0.902,0.049,1.804,0.085,2.706,0.108c0.903,0.024,1.791,0.036,2.669,0.036
				c1.002,0,1.992-0.012,2.969-0.036c0.978-0.024,1.955-0.06,2.932-0.108v0.432c-0.425,0.049-0.851,0.108-1.278,0.179
				c-0.425,0.072-0.808,0.198-1.146,0.377c-0.337,0.18-0.614,0.426-0.826,0.737c-0.214,0.312-0.32,0.719-0.32,1.222
				c0,0.336,0.099,0.749,0.3,1.24c0.199,0.491,0.438,1.073,0.713,1.744l5.226,13.189l4.66-11.033l-1.954-4.672
				c-0.803-1.893-2.217-2.888-4.248-2.983v-0.432c0.828,0.049,1.653,0.085,2.481,0.108c0.828,0.024,1.653,0.036,2.481,0.036
				c1.053,0,2.099-0.012,3.138-0.036c1.039-0.024,2.086-0.06,3.138-0.108v0.432c-0.325,0.024-0.696,0.078-1.11,0.162
				c-0.412,0.084-0.801,0.203-1.165,0.359c-0.364,0.156-0.671,0.366-0.921,0.629c-0.25,0.264-0.375,0.599-0.375,1.006
				c0,0.216,0.057,0.503,0.169,0.863c0.113,0.359,0.295,0.85,0.546,1.473l5.601,14.196l5.713-13.764
				c0.2-0.479,0.375-1.007,0.526-1.582c0.15-0.575,0.225-1.006,0.225-1.294c0-0.359-0.118-0.664-0.357-0.917
				c-0.239-0.251-0.532-0.455-0.883-0.611c-0.352-0.156-0.721-0.275-1.11-0.359c-0.389-0.084-0.732-0.138-1.033-0.162v-0.432
				c0.828,0.049,1.647,0.085,2.461,0.108c0.814,0.024,1.623,0.036,2.426,0.036c0.726,0,1.452-0.012,2.179-0.036
				s1.453-0.06,2.181-0.108v0.432c-0.752,0.072-1.385,0.251-1.899,0.539c-0.514,0.287-0.953,0.641-1.315,1.06
				c-0.364,0.42-0.664,0.869-0.903,1.348c-0.239,0.479-0.457,0.934-0.657,1.366l-8.571,19.12h-0.639l-5.488-14.269l-6.277,14.269
				h-0.676l-7.631-19.372c-0.375-0.934-0.752-1.658-1.128-2.174c-0.375-0.514-0.752-0.898-1.127-1.149
				c-0.376-0.252-0.765-0.419-1.165-0.503c-0.401-0.084-0.814-0.162-1.241-0.234V32.312z"/>
		</g>
	</g>
</g>
<g>
	
		<linearGradient id="SVGID_1_" gradientUnits="userSpaceOnUse" x1="300.3429" y1="1340.239" x2="311.7419" y2="1364.8552" gradientTransform="matrix(0.0027 1 -1 0.0027 1439.6075 -293.8846)">
		<stop  offset="0" style="stop-color:#FFFFFF"/>
		<stop  offset="0.2441" style="stop-color:#E7D4C4"/>
		<stop  offset="0.6121" style="stop-color:#C59871"/>
		<stop  offset="0.8729" style="stop-color:#AF733D"/>
		<stop  offset="1" style="stop-color:#A76429"/>
	</linearGradient>
	<path fill="url(#SVGID_1_)" d="M71.69,13.074c1.243-0.244,2.526-0.372,3.84-0.374c8.302-0.023,15.443,4.991,18.524,12.16
		l-0.002-0.028c-0.372-0.941-0.578-1.963-0.58-3.034c-0.013-4.592,3.704-8.325,8.3-8.338c0.011-0.001,0.019,0,0.029,0l0,0
		c-3.696-4.283-9.172-6.99-15.278-6.974c-5.883,0.018-11.168,2.558-14.832,6.592L71.69,13.074z"/>
</g>
<g>
	
		<linearGradient id="SVGID_2_" gradientUnits="userSpaceOnUse" x1="-135.6443" y1="1906.7898" x2="-124.2445" y2="1931.4077" gradientTransform="matrix(9.803370e-04 -1 1 9.803370e-04 -1856.0636 -120.7123)">
		<stop  offset="0" style="stop-color:#FFFFFF"/>
		<stop  offset="0.2819" style="stop-color:#B7D2D3"/>
		<stop  offset="0.6314" style="stop-color:#649FA0"/>
		<stop  offset="0.8793" style="stop-color:#307F80"/>
		<stop  offset="1" style="stop-color:#1C7274"/>
	</linearGradient>
	<path fill="url(#SVGID_2_)" d="M79.077,13.848c-1.244,0.239-2.527,0.363-3.841,0.361c-8.302-0.006-15.424-5.045-18.477-12.224
		l0.002,0.028c0.368,0.942,0.571,1.965,0.569,3.036c-0.005,4.592-3.736,8.312-8.332,8.309c-0.011,0.001-0.019,0-0.029,0l0,0
		c3.68,4.296,9.146,7.022,15.251,7.027c5.883,0.003,11.178-2.519,14.857-6.54L79.077,13.848z"/>
</g>
<text transform="matrix(1.0566 0 0 1 53.973 70.8442)" fill="#5C4F4E" font-family="'Corbel'" font-size="13.382">Talent Feedback System</text>
<text transform="matrix(1.0459 0 0 1 71.6898 83.7149)" fill="#5C4F4E" font-family="'Corbel'" font-size="6.9429">Coaching for Growth in K12 Classrooms</text>
<text transform="matrix(1 0 0 1 85.1735 97.3174)" fill="#5C4F4E" font-family="'Georgia'" font-size="12">LEARN MORE</text>
</svg>
