<?xml version="1.0" encoding="utf-8"?>
<!-- Generator: Adobe Illustrator 17.0.0, SVG Export Plug-In . SVG Version: 6.00 Build 0)  -->
<!DOCTYPE svg PUBLIC "-//W3C//DTD SVG 1.1//EN" "http://www.w3.org/Graphics/SVG/1.1/DTD/svg11.dtd">
<svg version="1.1" id="Layer_1" xmlns="http://www.w3.org/2000/svg" xmlns:xlink="http://www.w3.org/1999/xlink" x="0px" y="0px"
	 width="100.934px" height="99.278px" viewBox="0 0 100.934 99.278" enable-background="new 0 0 100.934 99.278"
	 xml:space="preserve">
<path fill="none" stroke="#822F26" stroke-width="3" stroke-miterlimit="10" d="M18.93,74.841"/>
<g>
	<g>
		<g>
			<path fill="#5C4F4E" d="M63.348,67.31h-7.956c-1.856-2.104-3.573-4.261-5.149-6.472c-1.576-2.211-2.983-4.551-4.221-7.022
				c-0.294,0-0.67-0.029-1.127-0.091c-0.457-0.06-0.928-0.129-1.415-0.205c-0.486-0.076-0.957-0.168-1.414-0.275
				c-0.457-0.107-0.833-0.205-1.127-0.297v7.136c0,1.281,0.036,2.341,0.11,3.18c0.074,0.839,0.266,1.517,0.575,2.035
				c0.309,0.519,0.774,0.899,1.392,1.143c0.619,0.245,1.473,0.411,2.564,0.504v0.548c-1.12-0.061-2.241-0.107-3.36-0.137
				c-1.12-0.03-2.24-0.046-3.359-0.046c-1.091,0-2.166,0.015-3.227,0.046s-2.122,0.076-3.182,0.137v-0.548
				c1.06-0.092,1.886-0.259,2.475-0.504c0.59-0.244,1.039-0.624,1.348-1.143c0.31-0.519,0.501-1.197,0.575-2.035
				s0.111-1.898,0.111-3.18V44.806c0-1.28-0.037-2.339-0.111-3.179c-0.074-0.839-0.265-1.517-0.575-2.035
				c-0.309-0.518-0.758-0.899-1.348-1.143c-0.59-0.244-1.415-0.412-2.475-0.504v-0.549c0.943,0.062,1.886,0.108,2.829,0.138
				c0.942,0.03,1.885,0.046,2.828,0.046c0.412,0,0.928-0.023,1.547-0.069s1.274-0.098,1.967-0.16
				c0.692-0.061,1.392-0.114,2.099-0.159c0.707-0.046,1.341-0.069,1.901-0.069c1.266,0,2.563,0.168,3.89,0.504
				c1.325,0.336,2.519,0.869,3.58,1.601s1.93,1.662,2.608,2.79c0.678,1.129,1.017,2.47,1.017,4.025c0,1.068-0.184,2.012-0.553,2.835
				c-0.368,0.823-0.861,1.541-1.48,2.15c-0.619,0.61-1.348,1.114-2.188,1.51c-0.84,0.397-1.717,0.686-2.63,0.869
				c0.412,0.732,0.899,1.555,1.459,2.47c0.559,0.915,1.186,1.846,1.879,2.79c0.692,0.946,1.428,1.883,2.21,2.813
				c0.78,0.931,1.605,1.769,2.475,2.516c0.868,0.748,1.76,1.373,2.674,1.876c0.912,0.503,1.84,0.8,2.784,0.891V67.31z
				 M40.939,51.393c1.325,0.519,2.696,0.777,4.11,0.777c2.299,0,4.081-0.548,5.349-1.647c1.266-1.097,1.9-2.881,1.9-5.351
				c0-1.006-0.184-1.914-0.552-2.722c-0.369-0.807-0.877-1.51-1.525-2.104c-0.648-0.594-1.392-1.052-2.232-1.372
				c-0.84-0.321-1.717-0.48-2.63-0.48c-0.737,0-1.459,0.03-2.165,0.091c-0.707,0.061-1.4,0.199-2.078,0.411
				c-0.06,1.464-0.104,2.943-0.132,4.437c-0.03,1.494-0.044,3.111-0.044,4.849V51.393z"/>
			<path fill="#5C4F4E" d="M127.461,46.144 M125.168,45.82"/>
			<path fill="#5C4F4E" d="M141.086,46.557 M137.515,46.557"/>
			<path fill="#5C4F4E" d="M165.198,51.283 M162.924,52.307 M169.896,49.594l-0.488,0.144 M152.531,49.055
				c0-1.006-0.032-1.838-0.094-2.497"/>
			<path fill="#5C4F4E" d="M182.634,49.163 M199.286,67.097 M212.63,43.664c-0.752,0.072-1.385,0.251-1.899,0.539 M194.155,46.683"
				/>
		</g>
	</g>
</g>
<g>
	
		<linearGradient id="SVGID_1_" gradientUnits="userSpaceOnUse" x1="280.1288" y1="1340.6143" x2="291.5277" y2="1365.2305" gradientTransform="matrix(0.0027 1 -1 0.0027 1408.108 -262.3016)">
		<stop  offset="0" style="stop-color:#FFFFFF"/>
		<stop  offset="0.2441" style="stop-color:#E7D4C4"/>
		<stop  offset="0.6121" style="stop-color:#C59871"/>
		<stop  offset="0.8729" style="stop-color:#AF733D"/>
		<stop  offset="1" style="stop-color:#A76429"/>
	</linearGradient>
	<path fill="url(#SVGID_1_)" d="M39.761,24.444c1.243-0.244,2.526-0.372,3.84-0.374c8.302-0.023,15.443,4.991,18.524,12.16
		l-0.002-0.028c-0.372-0.941-0.578-1.963-0.58-3.034c-0.013-4.592,3.704-8.325,8.3-8.338c0.011-0.001,0.019,0,0.029,0l0,0
		c-3.696-4.283-9.172-6.99-15.278-6.974c-5.883,0.018-11.168,2.558-14.832,6.592L39.761,24.444z"/>
</g>
<g>
	
		<linearGradient id="SVGID_2_" gradientUnits="userSpaceOnUse" x1="-180.5623" y1="1906.8162" x2="-169.1625" y2="1931.4341" gradientTransform="matrix(9.803370e-04 -1 1 9.803370e-04 -1887.6163 -152.2954)">
		<stop  offset="0" style="stop-color:#FFFFFF"/>
		<stop  offset="0.2819" style="stop-color:#B7D2D3"/>
		<stop  offset="0.6314" style="stop-color:#649FA0"/>
		<stop  offset="0.8793" style="stop-color:#307F80"/>
		<stop  offset="1" style="stop-color:#1C7274"/>
	</linearGradient>
	<path fill="url(#SVGID_2_)" d="M47.507,27.182c-1.244,0.239-2.527,0.363-3.841,0.361c-8.302-0.006-15.424-5.045-18.477-12.224
		l0.002,0.028c0.368,0.942,0.571,1.965,0.569,3.036c-0.005,4.592-3.736,8.312-8.332,8.309c-0.011,0.001-0.019,0-0.029,0l0,0
		c3.68,4.296,9.146,7.022,15.251,7.027c5.883,0.003,11.178-2.519,14.857-6.54L47.507,27.182z"/>
</g>
<text transform="matrix(1 0 0 1 9.804 11.095)" fill="#5C4F4E" font-family="'Georgia'" font-size="12">LEARN MORE</text>
<text transform="matrix(1 0 0 1 2.6854 77.3178)"><tspan x="0" y="0" fill="#5C4F4E" font-family="'Corbel'" font-size="10">Platform for Growth in</tspan><tspan x="13.044" y="12" fill="#5C4F4E" font-family="'Corbel'" font-size="10"> K12 Classrooms</tspan></text>
</svg>
