<svg id="Layer_1" data-name="Layer 1" xmlns="http://www.w3.org/2000/svg" xmlns:xlink="http://www.w3.org/1999/xlink" viewBox="0 0 250 250"><defs><style>.cls-1{font-size:26px;font-family:Georgia, Georgia;}.cls-1,.cls-2,.cls-5{fill:#5c4f4e;}.cls-2{font-size:20px;font-family:Corbel, Corbel;}.cls-3{letter-spacing:-0.06em;}.cls-4{letter-spacing:-0.07em;}.cls-6{fill:url(#linear-gradient);}.cls-7{fill:url(#linear-gradient-2);}</style><linearGradient id="linear-gradient" x1="-40.4" y1="743.7" x2="-17.6" y2="792.93" gradientTransform="translate(918 123.4) rotate(89.85)" gradientUnits="userSpaceOnUse"><stop offset="0" stop-color="#fff"/><stop offset="0.24" stop-color="#e7d4c4"/><stop offset="0.61" stop-color="#c59871"/><stop offset="0.87" stop-color="#af733d"/><stop offset="1" stop-color="#a76429"/></linearGradient><linearGradient id="linear-gradient-2" x1="-1396.67" y1="3545.89" x2="-1373.87" y2="3595.12" gradientTransform="translate(-3468.76 -1297.72) rotate(-89.94)" gradientUnits="userSpaceOnUse"><stop offset="0" stop-color="#fff"/><stop offset="0.28" stop-color="#b7d2d3"/><stop offset="0.63" stop-color="#649fa0"/><stop offset="0.88" stop-color="#307f80"/><stop offset="1" stop-color="#1c7274"/></linearGradient></defs><title>Artboard 2</title><text class="cls-1" transform="translate(38.37 63.37)">LEARN MORE</text><text class="cls-2" transform="translate(35.33 201.55)"><tspan class="cls-3">T</tspan><tspan x="9.83" y="0">ransforming</tspan><tspan class="cls-4" x="111.05" y="0"> </tspan><tspan class="cls-3" x="113.69" y="0">T</tspan><tspan x="123.53" y="0">eacher</tspan><tspan x="40.79" y="24">Preparation</tspan></text><path class="cls-5" d="M164.42,176.81H148.51a159.68,159.68,0,0,1-10.3-12.94,105.79,105.79,0,0,1-8.44-14,17.31,17.31,0,0,1-2.25-.18q-1.37-.18-2.83-.41t-2.83-.55c-.91-.21-1.67-.41-2.25-.59v14.27q0,3.84.22,6.36a9.56,9.56,0,0,0,1.15,4.07,5.44,5.44,0,0,0,2.78,2.29,18.75,18.75,0,0,0,5.13,1v1.1q-3.36-.18-6.72-.27t-6.72-.09q-3.27,0-6.45.09t-6.36.27v-1.1a17.25,17.25,0,0,0,5-1,5.46,5.46,0,0,0,2.7-2.29,9.55,9.55,0,0,0,1.15-4.07q.22-2.51.22-6.36V131.8q0-3.84-.22-6.36a9.53,9.53,0,0,0-1.15-4.07,5.47,5.47,0,0,0-2.7-2.29,17.33,17.33,0,0,0-5-1V117q2.83.19,5.66.28t5.66.09q1.24,0,3.09-.14c1.24-.09,2.55-.2,3.93-.32s2.78-.23,4.2-.32,2.68-.14,3.8-.14a31.63,31.63,0,0,1,7.78,1,22,22,0,0,1,7.16,3.2,17.88,17.88,0,0,1,5.22,5.58,15.34,15.34,0,0,1,2,8.05,13.72,13.72,0,0,1-1.11,5.67,14,14,0,0,1-3,4.3,15.73,15.73,0,0,1-4.38,3,22.71,22.71,0,0,1-5.26,1.74q1.24,2.2,2.92,4.94t3.76,5.58q2.08,2.84,4.42,5.63a43,43,0,0,0,4.95,5,31.4,31.4,0,0,0,5.35,3.75,14.31,14.31,0,0,0,5.57,1.78v1.09ZM119.61,145a22.35,22.35,0,0,0,8.22,1.55q6.9,0,10.7-3.29t3.8-10.7a12.68,12.68,0,0,0-4.15-9.65,13.83,13.83,0,0,0-4.46-2.74,14.61,14.61,0,0,0-5.26-1q-2.21,0-4.33.18a19.51,19.51,0,0,0-4.16.82q-.18,4.39-.26,8.87t-.09,9.7V145Z"/><path class="cls-6" d="M117.25,91.07A40.3,40.3,0,0,1,162,114.65v-.06a16.64,16.64,0,0,1,15.44-22.74h.06a40.21,40.21,0,0,0-60.22-.76Z"/><path class="cls-7" d="M132.74,96.55A40.29,40.29,0,0,1,88.11,72.82v.06A16.64,16.64,0,0,1,72.59,95.57h-.06a40.21,40.21,0,0,0,60.22,1Z"/></svg>